<svg version="1.1" xmlns="http://www.w3.org/2000/svg" xmlns:xlink="http://www.w3.org/1999/xlink" x="0px" y="0px"
	 width="24px" height="28px" viewBox="0 0 24 28" enable-background="new 0 0 24 28" xml:space="preserve">
<path d="M23.994,24.204L22.277,6.15c-0.037-0.401-0.399-0.705-0.822-0.705h-3.532C17.874,2.434,15.238,0,12,0
	C8.762,0,6.126,2.434,6.077,5.445H2.545c-0.429,0-0.785,0.304-0.822,0.705L0.006,24.204C0.006,24.227,0,24.25,0,24.273
	C0,26.328,2.017,28,4.501,28h14.998C21.983,28,24,26.328,24,24.273C24,24.25,24,24.227,23.994,24.204z M12,1.546
	c2.324,0,4.219,1.741,4.268,3.899H7.732C7.781,3.287,9.676,1.546,12,1.546z"/>
</svg>
