<?xml version="1.0" encoding="utf-8"?>
<!-- Generator: Adobe Illustrator 22.0.1, SVG Export Plug-In . SVG Version: 6.00 Build 0)  -->
<svg version="1.1" id="Shape_1_1_" xmlns="http://www.w3.org/2000/svg" xmlns:xlink="http://www.w3.org/1999/xlink" x="0px" y="0px"
	 width="300px" height="300px" viewBox="0 0 300 300" enable-background="new 0 0 300 300" xml:space="preserve" fill="#666666">
<g id="Shape_1">
	<g>
		<path fill-rule="evenodd" clip-rule="evenodd" d="M149.997,0C67.157,0,0,67.159,0,149.997S67.157,300,149.997,300
			S300,232.836,300,149.997S232.838,0,149.997,0z M214.846,178.527h-63.593c-0.215,0-0.415-0.052-0.628-0.06
			c-0.213,0.01-0.412,0.06-0.628,0.06c-5.729,0-10.374-4.645-10.374-10.374V62.25c0-5.729,4.645-10.374,10.374-10.374
			c5.729,0,10.374,4.645,10.374,10.374v95.529h54.471c5.729,0,10.374,4.645,10.374,10.374
			C225.216,173.882,220.575,178.527,214.846,178.527z"/>
	</g>
</g>
</svg>
