<svg version="1.1" xmlns="http://www.w3.org/2000/svg" xmlns:xlink="http://www.w3.org/1999/xlink" x="0px" y="0px" 	 width="380px" height="336px" viewBox="0 0 380 336" enable-background="new 0 0 380 336" xml:space="preserve"> <g id="Forma_1"> 	<g> 		<path fill-rule="evenodd" clip-rule="evenodd" d="M340,70.035c-22.056,0-40,17.953-40,40.02c0,5.904,1.294,11.507,3.598,16.556 			c-8.378,5.024-18.022,7.742-27.883,7.742c-27,0-49.628-19.816-53.642-45.988C233.022,79.18,240,65.405,240,50.025 			C240,22.441,217.57,0,190,0s-50,22.441-50,50.025c0,15.38,6.978,29.155,17.927,38.339c-4.014,26.173-26.642,45.988-53.642,45.988 			c-9.861,0-19.505-2.716-27.883-7.742C78.705,121.561,80,115.958,80,110.055c0-22.067-17.944-40.02-40-40.02S0,87.988,0,110.055 			c0,18.868,13.123,34.717,30.713,38.919l28.463,99.666c0.331,1.16,0.798,2.254,1.366,3.28C60.2,253.212,60,254.561,60,255.96 			v64.198c0,8.735,7.104,15.842,15.834,15.842h228.332c8.73,0,15.834-7.107,15.834-15.842V255.96c0-1.399-0.2-2.748-0.542-4.041 			c0.568-1.026,1.035-2.121,1.366-3.281l28.463-99.665c17.59-4.202,30.713-20.051,30.713-38.919 			C380,87.988,362.056,70.035,340,70.035z M190,20.01c16.542,0,30,13.465,30,30.015c0,10.709-5.639,20.12-14.097,25.433 			c-0.492,0.309-0.99,0.607-1.497,0.886c-0.048,0.027-0.096,0.055-0.144,0.081c-0.542,0.294-1.094,0.565-1.652,0.824 			c-0.152,0.071-0.305,0.139-0.458,0.207c-0.521,0.231-1.046,0.451-1.578,0.651c-0.061,0.023-0.12,0.049-0.181,0.072 			c-0.599,0.222-1.207,0.421-1.819,0.603c-0.131,0.039-0.264,0.075-0.397,0.113c-0.529,0.15-1.061,0.286-1.598,0.406 			c-0.105,0.024-0.21,0.051-0.316,0.073c-0.629,0.134-1.263,0.248-1.901,0.342c-0.112,0.016-0.226,0.028-0.339,0.043 			c-0.528,0.071-1.059,0.127-1.592,0.171c-0.167,0.013-0.334,0.028-0.503,0.038c-0.64,0.041-1.282,0.069-1.927,0.069 			c-0.645,0-1.287-0.028-1.927-0.069c-0.168-0.011-0.335-0.025-0.503-0.038c-0.533-0.043-1.064-0.099-1.592-0.171 			c-0.113-0.015-0.227-0.027-0.339-0.043c-0.638-0.094-1.272-0.208-1.901-0.342c-0.106-0.023-0.21-0.049-0.316-0.073 			c-0.537-0.121-1.069-0.256-1.598-0.406c-0.132-0.037-0.265-0.074-0.397-0.113c-0.612-0.183-1.22-0.381-1.819-0.603 			c-0.061-0.023-0.12-0.049-0.181-0.072c-0.532-0.201-1.057-0.42-1.578-0.651c-0.153-0.068-0.306-0.137-0.458-0.207 			c-0.557-0.259-1.109-0.53-1.652-0.824c-0.049-0.026-0.096-0.055-0.144-0.081c-0.507-0.279-1.005-0.577-1.497-0.886 			C165.639,70.145,160,60.734,160,50.025C160,33.475,173.458,20.01,190,20.01z M47.703,128.518 			c-0.529,0.222-1.071,0.419-1.623,0.595c-0.095,0.03-0.19,0.06-0.285,0.089c-0.542,0.164-1.093,0.308-1.654,0.426 			c-0.096,0.02-0.194,0.038-0.29,0.057c-0.575,0.113-1.156,0.205-1.747,0.267c-0.065,0.007-0.131,0.01-0.196,0.016 			c-0.628,0.06-1.264,0.097-1.907,0.097c-11.028,0-20-8.976-20-20.01c0-11.033,8.971-20.011,19.999-20.011s20,8.976,20,20.01 			c0,5.504-2.233,10.494-5.839,14.115c-0.016,0.016-0.031,0.031-0.046,0.047c-0.443,0.441-0.905,0.862-1.387,1.262 			c-0.01,0.009-0.021,0.017-0.032,0.026c-1.447,1.193-3.066,2.182-4.81,2.933C47.825,128.464,47.764,128.492,47.703,128.518z 			 M300,315.99H80v-55.861h220V315.99z M302.457,240.118H77.543l-26.184-91.686c0.116-0.034,0.23-0.075,0.346-0.11 			c0.165-0.051,0.329-0.105,0.494-0.158c0.455-0.146,0.907-0.298,1.356-0.46c0.129-0.047,0.257-0.094,0.385-0.142 			c0.502-0.187,1.001-0.384,1.495-0.591c0.067-0.028,0.135-0.056,0.202-0.085c2.855-1.214,5.569-2.751,8.08-4.604 			c12.006,7.837,26.121,12.079,40.568,12.079c34.596,0,63.949-23.776,72.058-56.212c0.227,0.065,0.458,0.12,0.686,0.182 			c0.26,0.07,0.52,0.141,0.782,0.207c0.589,0.148,1.182,0.286,1.777,0.411c0.418,0.089,0.84,0.166,1.261,0.244 			c0.264,0.048,0.527,0.097,0.791,0.142c0.473,0.08,0.947,0.154,1.424,0.221c0.046,0.006,0.091,0.011,0.137,0.017 			c2.225,0.304,4.492,0.475,6.799,0.475s4.574-0.171,6.799-0.475c0.046-0.006,0.091-0.011,0.137-0.017 			c0.477-0.067,0.951-0.141,1.424-0.221c0.265-0.044,0.528-0.093,0.791-0.142c0.422-0.078,0.844-0.155,1.261-0.244 			c0.595-0.126,1.188-0.264,1.777-0.411c0.262-0.066,0.521-0.137,0.782-0.207c0.228-0.061,0.458-0.117,0.686-0.182 			c8.108,32.436,37.462,56.212,72.058,56.212c14.447,0,28.563-4.242,40.568-12.079c2.511,1.853,5.225,3.391,8.08,4.604 			c0.067,0.029,0.135,0.056,0.202,0.085c0.494,0.207,0.992,0.404,1.495,0.591c0.128,0.048,0.256,0.095,0.385,0.142 			c0.449,0.162,0.901,0.314,1.356,0.46c0.165,0.053,0.328,0.107,0.494,0.158c0.116,0.035,0.229,0.076,0.346,0.11L302.457,240.118z 			 M340,130.064c-0.644,0-1.279-0.037-1.907-0.097c-0.065-0.006-0.131-0.009-0.196-0.016c-0.591-0.062-1.173-0.155-1.747-0.267 			c-0.097-0.019-0.194-0.036-0.29-0.057c-0.561-0.118-1.112-0.262-1.654-0.426c-0.095-0.029-0.191-0.058-0.285-0.089 			c-0.551-0.176-1.093-0.373-1.623-0.595c-0.062-0.026-0.122-0.053-0.183-0.08c-1.744-0.752-3.363-1.741-4.81-2.933 			c-0.01-0.009-0.021-0.017-0.031-0.026c-0.482-0.399-0.945-0.82-1.387-1.262c-0.015-0.016-0.031-0.031-0.046-0.047 			c-3.606-3.621-5.839-8.611-5.839-14.115c0-11.033,8.972-20.01,20-20.01s20,8.976,20,20.01 			C360.002,121.087,351.028,130.064,340,130.064z"/> 	</g> </g> </svg> 