<?xml version="1.0" encoding="utf-8"?>
<!-- Generator: Adobe Illustrator 22.0.1, SVG Export Plug-In . SVG Version: 6.00 Build 0)  -->
<svg version="1.1" id="Forma_1_1_" xmlns="http://www.w3.org/2000/svg" xmlns:xlink="http://www.w3.org/1999/xlink" x="0px" y="0px"
	 width="141px" height="115px" viewBox="0 0 141 115" enable-background="new 0 0 141 115" xml:space="preserve" fill="#666666">
<g id="Forma_1">
	<g>
		<path fill-rule="evenodd" clip-rule="evenodd" d="M139.345,1.69c-1.031-1.031-2.255-1.548-3.666-1.548H52.251
			c-1.412,0-2.635,0.517-3.666,1.548c-1.032,1.032-1.548,2.255-1.548,3.667V21H34.001c-1.467,0-3.056,0.353-4.767,1.059
			c-1.711,0.707-3.082,1.575-4.114,2.607L8.988,40.798c-0.706,0.706-1.316,1.52-1.833,2.444c-0.516,0.922-0.896,1.752-1.141,2.484
			c-0.244,0.734-0.421,1.738-0.529,3.015c-0.108,1.277-0.177,2.214-0.204,2.812c-0.026,0.597-0.026,1.629,0,3.096
			c0.027,1.467,0.041,2.417,0.041,2.852v26.07c-1.412,0-2.634,0.517-3.666,1.549c-1.032,1.031-1.548,2.254-1.548,3.666
			c0,0.814,0.108,1.535,0.325,2.158c0.218,0.625,0.584,1.127,1.101,1.509c0.516,0.38,0.964,0.692,1.344,0.937
			c0.381,0.244,1.019,0.407,1.915,0.489c0.896,0.081,1.507,0.136,1.833,0.163c0.326,0.025,1.018,0.025,2.077,0
			c1.06-0.027,1.671-0.041,1.834-0.041h5.214c0,5.757,2.037,10.673,6.11,14.746c4.074,4.074,8.989,6.111,14.747,6.111
			c5.757,0,10.673-2.037,14.746-6.111c4.074-4.073,6.11-8.989,6.11-14.746h31.287c0,5.757,2.037,10.673,6.11,14.746
			c4.072,4.074,8.988,6.111,14.746,6.111c5.758,0,10.672-2.037,14.746-6.111c4.074-4.073,6.109-8.989,6.109-14.746
			c0.163,0,0.773,0.014,1.833,0.041c1.06,0.025,1.752,0.025,2.078,0c0.326-0.027,0.938-0.082,1.833-0.163
			c0.897-0.082,1.534-0.245,1.915-0.489c0.38-0.244,0.828-0.557,1.344-0.937c0.517-0.382,0.884-0.884,1.101-1.509
			c0.219-0.623,0.326-1.344,0.326-2.158V5.358C140.892,3.946,140.377,2.724,139.345,1.69z M43.939,101.333
			c-2.063,2.065-4.508,3.098-7.332,3.098c-2.825,0-5.269-1.033-7.333-3.098c-2.064-2.063-3.096-4.508-3.096-7.332
			c0-2.824,1.033-5.269,3.096-7.333c2.064-2.063,4.508-3.097,7.333-3.097c2.824,0,5.269,1.033,7.332,3.097
			c2.065,2.064,3.097,4.509,3.097,7.333C47.036,96.825,46.004,99.27,43.939,101.333z M47.036,52.286H15.75v-2.443
			c0-0.706,0.244-1.304,0.733-1.793L32.37,32.163c0.489-0.489,1.087-0.733,1.793-0.733h12.873V52.286z M116.939,101.333
			c-2.065,2.065-4.508,3.098-7.332,3.098c-2.825,0-5.272-1.033-7.334-3.098c-2.063-2.063-3.097-4.508-3.097-7.332
			c0-2.824,1.033-5.269,3.097-7.333c2.063-2.063,4.509-3.097,7.334-3.097c2.824,0,5.268,1.033,7.332,3.097
			c2.063,2.064,3.096,4.509,3.096,7.333C120.035,96.825,119.004,99.27,116.939,101.333z"/>
	</g>
</g>
</svg>
