<?xml version="1.0" encoding="utf-8"?>
<!-- Generator: Adobe Illustrator 22.0.1, SVG Export Plug-In . SVG Version: 6.00 Build 0)  -->
<svg version="1.1" id="Shape_1_1_" xmlns="http://www.w3.org/2000/svg" xmlns:xlink="http://www.w3.org/1999/xlink" x="0px" y="0px"
	 width="800px" height="609px" viewBox="0 0 800 609" enable-background="new 0 0 800 609" xml:space="preserve" fill="#fa9716">
<g id="Shape_1">
	<g>
		<path fill-rule="evenodd" clip-rule="evenodd" d="M505.427,300.367l195.615-175.514c9.102-8.279,9.93-22.353,1.655-31.625
			c-8.275-9.107-22.342-9.935-31.61-1.656L401.331,333.814l-52.628-47.025c-0.165-0.166-0.331-0.331-0.331-0.497
			c-1.158-1.159-2.317-2.152-3.641-3.146L130.582,91.407c-9.268-8.279-23.335-7.451-31.609,1.821
			c-8.275,9.273-7.448,23.347,1.82,31.626l197.931,177.004L101.62,486.478c-8.937,8.445-9.434,22.519-0.993,31.626
			c4.468,4.636,10.426,7.119,16.384,7.119c5.461,0,10.922-1.987,15.225-5.961l200.083-187.27l54.282,48.515
			c4.303,3.809,9.599,5.63,14.894,5.63c5.296,0,10.758-1.987,14.894-5.795l55.772-50.005l198.925,189.092
			c4.303,4.139,9.93,6.126,15.391,6.126c5.958,0,11.75-2.318,16.218-6.954c8.44-8.941,8.109-23.181-0.828-31.626L505.427,300.367z
			 M703.192,1H98.807C44.856,1,1,44.879,1,98.858v413.285C1,561.38,37.492,602.207,84.849,609h632.136
			c43.189-6.196,77.338-40.697,83.015-84.07V85.965C793.734,38.119,752.72,1,703.192,1z M703.192,565.294H98.807
			c-29.293,0-53.124-23.844-53.124-53.151V99.023c0-29.308,23.831-53.151,53.124-53.151h604.22
			c29.292,0,53.124,23.843,53.124,53.151v413.12h0.165C756.316,541.45,732.485,565.294,703.192,565.294z"/>
	</g>
</g>
</svg>
