<svg version="1.1" xmlns="http://www.w3.org/2000/svg" xmlns:xlink="http://www.w3.org/1999/xlink" x="0px" y="0px" 	 width="512px" height="452px" viewBox="0 0 512 452" enable-background="new 0 0 512 452" xml:space="preserve"> <g id="Forma_1"> 	<g> 		<path fill-rule="evenodd" clip-rule="evenodd" d="M474.644,44.401C449.391,15.768,414.358-0.001,376-0.001 			c-53.948,0-88.103,32.197-107.255,59.207c-4.969,7.009-9.196,14.037-12.745,20.65c-3.549-6.613-7.775-13.641-12.745-20.65 			C224.103,32.196,189.948-0.001,136-0.001c-38.358,0-73.391,15.77-98.645,44.403C13.267,71.716,0,108.298,0,147.408 			c0,42.572,16.633,82.169,52.345,124.61c31.917,37.933,77.834,77.032,131.005,122.309c19.813,16.872,40.302,34.319,62.115,53.39 			l0.655,0.574c2.828,2.474,6.354,3.71,9.88,3.71s7.052-1.237,9.88-3.71l0.655-0.574c21.813-19.071,42.302-36.518,62.118-53.392 			c53.168-45.273,99.085-84.373,131.002-122.307C495.367,229.575,512,189.98,512,147.408C512,108.298,498.733,71.716,474.644,44.401 			z M309.193,371.509c-17.08,14.543-34.658,29.512-53.193,45.613c-18.534-16.099-36.113-31.069-53.196-45.615 			C98.745,282.898,30,224.359,30,147.408c0-31.807,10.605-61.35,29.862-83.185C79.34,42.14,106.379,29.977,136,29.977 			c41.129,0,67.716,25.32,82.776,46.56c13.509,19.05,20.558,38.254,22.962,45.626c2.011,6.171,7.768,10.346,14.262,10.346 			s12.251-4.176,14.262-10.346c2.404-7.372,9.453-26.576,22.962-45.627c15.06-21.24,41.647-46.559,82.776-46.559 			c29.621,0,56.66,12.162,76.137,34.245C471.395,86.058,482,115.601,482,147.408C482,224.359,413.255,282.898,309.193,371.509z"/> 	</g> </g> </svg> 