<svg version="1.1" id="Shape_1_1_" xmlns="http://www.w3.org/2000/svg" xmlns:xlink="http://www.w3.org/1999/xlink" x="0px" y="0px"
	 width="799px" height="800px" viewBox="0 0 799 800" enable-background="new 0 0 799 800" xml:space="preserve" fill="#fa9512">
<g id="Shape_1">
	<g>
		<path fill-rule="evenodd" clip-rule="evenodd" d="M692.438,673.342C692.269,673.342,692.269,673.511,692.438,673.342
			L692.438,673.342z M631.994,495.513c-16.377-17.056-36.131-26.176-57.066-26.176c-20.767,0-40.69,8.951-57.742,26.007
			l-53.353,53.197c-4.39-2.364-8.78-4.56-13-6.755c-6.079-3.04-11.819-5.91-16.715-8.95
			c-49.976-31.749-95.392-73.124-138.953-126.659c-21.104-26.682-35.287-49.143-45.586-71.941
			c13.844-12.666,26.676-25.838,39.17-38.504c4.727-4.728,9.455-9.626,14.182-14.354c35.456-35.464,35.456-81.399,0-116.863
			l-46.092-46.104c-5.234-5.235-10.637-10.639-15.702-16.043c-10.13-10.471-20.767-21.279-31.741-31.411
			c-16.377-16.213-35.962-24.825-56.56-24.825c-20.598,0-40.521,8.613-57.404,24.825c-0.169,0.169-0.169,0.169-0.338,0.337
			L37.69,129.218c-21.611,21.616-33.936,47.961-36.638,78.528C-3,257.058,11.52,302.993,22.663,333.053
			c27.352,73.8,68.21,142.195,129.16,215.488c73.95,88.323,162.927,158.07,264.567,207.213
			c38.832,18.408,90.665,40.192,148.576,43.908c3.545,0.169,7.259,0.338,10.636,0.338c39.002,0,71.756-14.016,97.419-41.882
			c0.169-0.337,0.507-0.506,0.676-0.844c8.779-10.64,18.909-20.266,29.546-30.567c7.259-6.923,14.689-14.185,21.949-21.784
			c16.714-17.395,25.494-37.66,25.494-58.432c0-20.941-8.948-41.037-26.001-57.925L631.994,495.513z M692.438,673.342
			c-6.586,7.092-13.338,13.51-20.599,20.603c-10.974,10.471-22.118,21.447-32.585,33.776
			c-17.053,18.239-37.145,26.852-63.483,26.852c-2.532,0-5.234,0-7.766-0.169c-50.145-3.209-96.744-22.799-131.692-39.518
			c-95.562-46.272-179.474-111.966-249.203-195.222c-57.573-69.409-96.068-133.582-121.562-202.484
			c-15.702-42.051-21.442-74.813-18.91-105.718c1.688-19.759,9.286-36.14,23.3-50.156l57.573-57.587
			c8.273-7.769,17.052-11.99,25.663-11.99c10.637,0,19.247,6.417,24.65,11.821c0.169,0.169,0.338,0.338,0.507,0.507
			c10.299,9.626,20.091,19.59,30.39,30.229c5.234,5.404,10.637,10.808,16.039,16.381l46.092,46.103
			c17.897,17.901,17.897,34.451,0,52.352c-4.896,4.897-9.623,9.795-14.52,14.523c-14.182,14.524-27.689,28.034-42.378,41.207
			c-0.337,0.337-0.675,0.507-0.844,0.844c-14.52,14.524-11.818,28.71-8.779,38.335c0.169,0.506,0.338,1.013,0.506,1.52
			c11.988,29.047,28.871,56.405,54.534,88.998l0.169,0.169c46.599,57.418,95.731,102.171,149.927,136.454
			c6.922,4.391,14.013,7.937,20.766,11.315c6.079,3.04,11.819,5.91,16.715,8.95c0.676,0.338,1.351,0.845,2.026,1.183
			c5.74,2.871,11.143,4.221,16.715,4.221c14.013,0,22.793-8.782,25.663-11.653l57.742-57.756
			c5.741-5.741,14.858-12.666,25.495-12.666c10.468,0,19.078,6.586,24.312,12.328c0.169,0.169,0.169,0.169,0.338,0.338
			l93.029,93.052C709.659,637.708,709.659,655.44,692.438,673.342z M432.092,190.183c44.235,7.431,84.418,28.372,116.498,60.458
			c32.078,32.087,52.846,72.28,60.443,116.526c1.857,11.146,11.481,18.914,22.455,18.914c1.351,0,2.533-0.169,3.884-0.337
			c12.493-2.027,20.767-13.848,18.741-26.345c-9.118-53.534-34.443-102.34-73.107-141.013
			c-38.664-38.673-87.457-64.004-140.979-73.124c-12.493-2.027-24.143,6.248-26.338,18.576
			C411.494,176.166,419.598,188.156,432.092,190.183z M798.805,352.812c-15.027-88.154-56.56-168.371-120.38-232.207
			C614.605,56.77,534.407,15.226,446.274,0.195C433.949-2,422.299,6.444,420.104,18.772c-2.025,12.497,6.248,24.15,18.741,26.345
			c78.677,13.341,150.433,50.664,207.5,107.575c57.067,57.081,94.211,128.854,107.549,207.55
			c1.857,11.146,11.481,18.915,22.456,18.915c1.351,0,2.532-0.169,3.883-0.338C792.558,376.961,801,365.14,798.805,352.812z"/>
	</g>
</g>
</svg>
