<?xml version="1.0" encoding="utf-8"?>
<!-- Generator: Adobe Illustrator 22.0.1, SVG Export Plug-In . SVG Version: 6.00 Build 0)  -->
<svg version="1.1" id="Forma_1_1_" xmlns="http://www.w3.org/2000/svg" xmlns:xlink="http://www.w3.org/1999/xlink" x="0px" y="0px"
	 width="551px" height="551px" viewBox="0 0 551 551" enable-background="new 0 0 551 551" xml:space="preserve" fill="#525252">
<g id="Forma_1">
	<g>
		<path fill-rule="evenodd" clip-rule="evenodd" d="M531.559,83.456H422.971V19.441c0-10.906-8.535-19.442-19.442-19.442H147.47
			c-10.906,0-19.442,8.535-19.442,19.442v64.015H19.441c-10.906,0-19.442,8.535-19.442,19.441v345.206
			c0,10.432,9.009,19.441,19.442,19.441h108.588v64.015c0,10.906,8.535,19.442,19.442,19.442h256.059
			c10.906,0,19.442-8.535,19.442-19.442v-64.015h108.588c10.906,0,19.442-8.535,19.442-19.441V102.897
			C551,91.991,542.465,83.456,531.559,83.456z M166.912,38.882h217.176v44.573H166.912V38.882z M384.088,512.117H166.912V351.843
			h217.176V512.117z M512.117,428.661h-89.146v-76.818h34.615c10.906,0,19.442-8.535,19.442-19.442
			c0-10.906-8.535-19.441-19.442-19.441H93.888c-10.906,0-19.442,8.535-19.442,19.441c0,10.906,8.535,19.442,19.442,19.442h34.615
			v76.818H38.882V122.339h473.235V428.661z M378.398,222.391h50.263c10.906,0,19.441-8.535,19.441-19.441
			c0-10.906-8.535-19.442-19.441-19.442h-50.263c-10.906,0-19.441,8.535-19.441,19.442
			C358.956,213.856,367.491,222.391,378.398,222.391z"/>
	</g>
</g>
</svg>
