<svg version="1.1" xmlns="http://www.w3.org/2000/svg" xmlns:xlink="http://www.w3.org/1999/xlink" x="0px" y="0px" 	 width="512px" height="512px" viewBox="0 0 512 512" enable-background="new 0 0 512 512" xml:space="preserve"> <g id="Forma_1"> 	<g> 		<path fill-rule="evenodd" clip-rule="evenodd" d="M434.427,482V155.147h-95.371v61.857h-35.37v-61.857H271v-54.975h95.157V0H241 			v155.148h-32.685v61.857h-35.371v-61.857h-95.37V482H0v30h512v-30H434.427z M271,30h65.157v40.173H271V30z M288.579,482h-65.158 			v-77.398c0-17.964,14.615-32.579,32.579-32.579s32.579,14.615,32.579,32.579V482z M404.428,482H318.58v-77.398 			c0-34.506-28.073-62.579-62.579-62.579c-34.506,0-62.579,28.073-62.579,62.579V482h-85.848V185.147h35.371v61.857h95.371v-61.857 			h35.371v61.857h95.37v-61.857h35.371V482z"/> 	</g> </g> </svg> 