<svg version="1.1" xmlns="http://www.w3.org/2000/svg" xmlns:xlink="http://www.w3.org/1999/xlink" x="0px" y="0px" 	 width="800px" height="764px" viewBox="0 0 800 764" enable-background="new 0 0 800 764" xml:space="preserve"> <g id="Shape_1"> 	<g> 		<path fill-rule="evenodd" clip-rule="evenodd" d="M799.373,288.717c-2.627-8.047-9.522-13.795-17.896-15.109l-249.552-35.474 			L419.627,12.318C415.851,4.763,408.135,0,399.761,0c-8.373,0-16.09,4.763-19.866,12.482L269.074,238.955L19.522,276.071 			c-8.373,1.314-15.268,7.062-17.896,15.109c-2.627,8.047-0.328,16.916,5.746,22.663l181.09,175.563l-41.866,248.644 			c-1.478,8.376,1.97,16.752,8.866,21.678c3.776,2.792,8.373,4.27,12.97,4.27c3.612,0,7.06-0.822,10.344-2.628L401.567,643.29 			l223.448,116.767c3.283,1.643,6.731,2.463,10.179,2.463c12.149,0,22.164-10.018,22.164-22.171c0-1.807-0.164-3.449-0.656-5.091 			l-43.179-247.166l179.94-176.548C799.865,305.633,802,296.764,799.373,288.717z M574.448,464.608 			c-5.253,5.091-7.552,12.481-6.239,19.707l37.597,215.635L411.747,598.62c-6.404-3.449-14.12-3.285-20.687,0L197.656,701.099 			l36.284-215.963c1.149-7.226-1.149-14.452-6.403-19.543L70.582,313.187l216.552-32.189c7.224-1.15,13.463-5.584,16.583-12.153 			l96.209-196.583l97.522,196.09c3.284,6.57,9.522,11.004,16.746,12.153l216.717,30.875L574.448,464.608z"/> 	</g> </g> </svg> 